<?xml version="1.0" encoding="utf-8"?><svg viewBox="0 0 47 41" xmlns="http://www.w3.org/2000/svg" xmlns:xlink="http://www.w3.org/1999/xlink"><style>:root>svg{display:none}:root>svg:target{display:block}</style><svg fill="none" viewBox="0 0 40 41" id="ball" xmlns="http://www.w3.org/2000/svg"><path d="m30.664 7.902.305-.384-.378-.313A16.673 16.673 0 0 0 19.92 3.36a16.9 16.9 0 0 0-4.097.525l-.727.181.447.602c1.39 1.87 3.388 4.696 5.78 9.122l.207.382.408-.152c4.527-1.68 7.24-4.252 8.725-6.118Zm-17.3-2.758-.246-.323-.366.173c-4.496 2.121-7.903 6.172-9.247 11.119l-.167.61.633.02c2.476.079 8.394-.038 14.952-1.795l.619-.165-.311-.56c-2.544-4.584-4.683-7.518-5.868-9.079Zm19.453 4.26-.388-.462-.381.466c-1.656 2.021-4.532 4.647-9.084 6.428l-.506.198.24.488a72.893 72.893 0 0 1 2.8 6.427l.144.379.4-.061a38.402 38.402 0 0 1 8.637-.323c.56.046.92.099 1.34.16l.275.039.512.072.055-.514a17.62 17.62 0 0 0-4.044-13.298ZM20.67 17.03l-.185-.37-.399.113c-7.713 2.19-14.508 2.124-16.624 2.039l-.482-.02-.037.48-.002.035c-.037.476-.074.965-.074 1.485 0 5.234 2.264 9.906 5.835 13.102l.373.334.333-.373a49.75 49.75 0 0 1 3.556-3.608l.002-.001c2.746-2.532 6.28-5.21 10.128-6.38l.517-.157-.196-.503a74.456 74.456 0 0 0-2.745-6.176Zm9.49 7.897h-.006a38.168 38.168 0 0 0-3.182.292l-.595.08.186.57c.924 2.844 1.688 5.857 2.181 8.99l.125.79.655-.457a17.321 17.321 0 0 0 6.719-9.386l.165-.57-.59-.066c-1.46-.165-3.31-.331-5.658-.243Zm-5.656 1.185-.154-.453-.46.133c-3.381.984-6.918 3.535-9.598 5.996-1.296 1.178-2.341 2.297-3.181 3.213l-.413.451.524.315c2.545 1.535 5.501 2.438 8.69 2.438 2.394 0 4.652-.506 6.714-1.397l.348-.15-.051-.376c-.484-3.574-1.339-6.98-2.42-10.17ZM.868 20.782c0-10.753 8.567-19.499 19.054-19.499 10.487 0 19.054 8.746 19.054 19.5 0 10.752-8.567 19.498-19.054 19.498C9.435 40.281.868 31.535.868 20.782Z" fill="#070707" stroke="#070707"/></svg><svg fill="none" viewBox="0 0 41 40" id="be" xmlns="http://www.w3.org/2000/svg"><g clip-path="url(#ba)" fill="#070707" stroke="#070707" stroke-width=".5"><path d="M34.32 0H5.96C2.72 0 .085 2.628.085 5.86v28.28C.085 37.372 2.72 40 5.96 40h28.36c3.24 0 5.876-2.629 5.876-5.86V5.86C40.196 2.627 37.56 0 34.32 0Zm3.526 34.14a3.525 3.525 0 0 1-3.526 3.516H5.96a3.525 3.525 0 0 1-3.525-3.515V5.859A3.525 3.525 0 0 1 5.96 2.344h28.36a3.525 3.525 0 0 1 3.526 3.515v28.282Z"/><path d="M18.965 16.484c0-2.585-2.108-4.687-4.7-4.687H7.214v16.406h7.05c2.593 0 4.701-2.102 4.701-4.687A4.67 4.67 0 0 0 17.37 20a4.67 4.67 0 0 0 1.596-3.516Zm-2.35 7.032a2.35 2.35 0 0 1-2.35 2.343h-4.7v-4.687h4.7a2.35 2.35 0 0 1 2.35 2.344Zm-7.05-4.688v-4.687h4.7a2.35 2.35 0 0 1 2.35 2.343 2.35 2.35 0 0 1-2.35 2.344h-4.7ZM27.191 16.484c-3.24 0-5.876 2.629-5.876 5.86 0 3.23 2.636 5.86 5.876 5.86a5.9 5.9 0 0 0 5.089-2.93l-2.035-1.173a3.53 3.53 0 0 1-6.378-.585h9.2v-1.172c0-3.231-2.636-5.86-5.876-5.86Zm-3.324 4.688a3.53 3.53 0 0 1 6.648 0h-6.648ZM22.49 11.797h9.402v2.344H22.49v-2.344Z"/></g><defs><clipPath id="ba"><path fill="#fff" transform="translate(.085)" d="M0 0h40.111v40H0z"/></clipPath></defs></svg><svg fill="none" viewBox="0 0 11 20" id="facebook" xmlns="http://www.w3.org/2000/svg"><path d="M9.12 3.32H11V.14A26.111 26.111 0 0 0 8.26 0C5.54 0 3.68 1.66 3.68 4.7v2.62H.61v3.56h3.07V20h3.68v-9.12h3.06l.46-3.56H7.36V5.05c0-1.05.28-1.73 1.76-1.73Z" fill="#F5EFDB"/></svg><svg fill="none" viewBox="0 0 41 41" id="in" xmlns="http://www.w3.org/2000/svg"><path d="M34.575.643h-28.4C2.932.643.293 3.275.293 6.51v28.323c0 3.235 2.64 5.868 5.884 5.868h28.399c3.244 0 5.884-2.633 5.884-5.868V6.51c0-3.236-2.64-5.868-5.884-5.868Zm3.53 34.19a3.53 3.53 0 0 1-3.53 3.521h-28.4a3.53 3.53 0 0 1-3.53-3.52V6.51a3.53 3.53 0 0 1 3.53-3.521h28.4a3.53 3.53 0 0 1 3.53 3.52v28.324Z" fill="#070707" stroke="#070707" stroke-width=".5"/><mask id="da" fill="#fff"><path d="M31.42 29.679h-4.312v-7.202c0-.497-.036-.988-.161-1.472-.515-1.999-2.741-1.882-3.627-.935-.445.476-.736 1.014-.748 1.679-.002.158-.012.317-.012.475v7.453h-4.304V16.313h4.302v1.793l.034.015c.03-.041.062-.082.092-.125.432-.598.927-1.13 1.585-1.488.736-.402 1.53-.536 2.356-.512.895.026 1.744.227 2.51.709.98.617 1.579 1.52 1.929 2.604.273.845.362 1.716.363 2.598.002 2.539 0 5.077 0 7.616 0 .05-.004.1-.007.157Z"/></mask><path d="M31.42 29.679h-4.312v-7.202c0-.497-.036-.988-.161-1.472-.515-1.999-2.741-1.882-3.627-.935-.445.476-.736 1.014-.748 1.679-.002.158-.012.317-.012.475v7.453h-4.304V16.313h4.302v1.793l.034.015c.03-.041.062-.082.092-.125.432-.598.927-1.13 1.585-1.488.736-.402 1.53-.536 2.356-.512.895.026 1.744.227 2.51.709.98.617 1.579 1.52 1.929 2.604.273.845.362 1.716.363 2.598.002 2.539 0 5.077 0 7.616 0 .05-.004.1-.007.157Z" fill="#070707"/><path d="M31.42 29.679v.03h.029l.001-.029-.03-.001Zm-4.312 0h-.03v.03h.03v-.03Zm0-7.202h.031-.03Zm-.161-1.472.03-.008-.03.008Zm-3.627-.935.023.021-.023-.02Zm-.748 1.679h-.03.03Zm-.012.475h.03-.03Zm0 7.453v.031h.03v-.03h-.03Zm-4.304 0h-.03v.031h.03v-.03Zm0-13.365v-.03h-.03v.03h.03Zm4.302 0h.03v-.03h-.03v.03Zm0 1.793h-.031v.02l.018.008.012-.028Zm.034.015-.012.028.022.01.015-.02-.025-.018Zm.092-.125.025.018-.025-.018Zm1.585-1.488.015.027-.015-.027Zm2.356-.512.001-.03v.03Zm2.51.709.016-.026-.016.026Zm1.929 2.604-.03.01.03-.01Zm.363 2.598h.03-.03Zm0 7.616h-.03.03Zm-.007.126H27.108v.061H31.42v-.06Zm-4.281.03V29.48h-.061V29.679h.061Zm0-.198v-7.003h-.06c-.002 2.334-.001 4.669-.001 7.003h.061Zm0-7.003c0-.498-.037-.992-.162-1.48l-.06.015c.124.482.161.97.161 1.465h.061Zm-.162-1.48c-.261-1.012-.957-1.49-1.7-1.595-.74-.103-1.529.166-1.979.647l.045.042c.435-.466 1.203-.729 1.925-.628.72.1 1.395.563 1.65 1.55l.059-.016Zm-3.679-.948c-.448.48-.744 1.025-.756 1.7h.06c.013-.655.3-1.186.74-1.658l-.044-.042Zm-.756 1.7c-.003.155-.012.317-.012.475h.06c0-.159.01-.314.013-.474l-.061-.002Zm-.012.475-.001 7.248h.061v-7.248h-.06Zm-.001 7.248V29.678h.061V29.472h-.061Zm.03.175H18.257v.061H22.56v-.061Zm-4.273.03V16.313h-.06V29.677h.06Zm-.03-13.334H22.558v-.061H18.256v.061Zm4.27-.03V18.104h.062V16.312h-.061Zm.02 1.82.034.015.024-.056-.034-.015-.025.056Zm.07.006.093-.125-.05-.036-.092.124.05.037Zm.093-.126c.43-.597.922-1.123 1.575-1.48l-.03-.053c-.663.362-1.162.897-1.594 1.498l.05.035Zm1.575-1.48c.73-.397 1.518-.531 2.34-.508l.002-.06c-.83-.025-1.63.11-2.371.515l.03.054Zm2.34-.508c.891.026 1.735.227 2.494.705l.033-.052c-.77-.485-1.626-.688-2.525-.714l-.002.061Zm2.494.705c.974.613 1.568 1.51 1.917 2.587l.058-.018c-.352-1.09-.953-2-1.942-2.621l-.033.052Zm1.917 2.587c.271.841.36 1.709.361 2.589h.062c-.001-.884-.091-1.759-.365-2.607l-.058.018Zm.361 2.589c.002 2.539.001 5.077.001 7.616h.061c0-2.538.002-5.077 0-7.616h-.062Zm.001 7.616c0 .049-.005.096-.008.155l.061.003c.003-.055.008-.107.008-.158h-.061Z" fill="#070707" mask="url(#da)"/><path d="M15.61 29.67H11.36V16.325H15.61V29.67ZM13.67 9.672c.67-.001 1.24.236 1.645.643.404.406.643.982.645 1.659.002.67-.238 1.24-.648 1.644-.41.403-.991.64-1.675.64-1.332.002-2.281-.95-2.284-2.29-.002-1.34.96-2.295 2.316-2.296Z" fill="#070707" stroke="#070707" stroke-width=".031"/></svg><svg fill="none" viewBox="0 0 40 41" id="inst" xmlns="http://www.w3.org/2000/svg"><path d="M12.166 1.293h.5v-.01h15.905c5.965 0 10.847 4.985 10.847 11.112V29.17c0 6.128-4.883 11.112-10.838 11.112H12.166C6.2 40.281 1.31 35.305 1.31 29.188V12.405C1.31 6.278 6.2 1.293 12.166 1.293Zm-8.848 11.12v16.785c0 4.986 3.928 9.017 8.848 9.017H28.58c4.904 0 8.83-4.032 8.83-9.036V12.405c0-5.004-3.927-9.036-8.839-9.036H12.166c-4.913 0-8.838 4.032-8.848 9.045Zm28.084-3.93c0-.59.454-1.038 1.005-1.038.55 0 1.004.448 1.004 1.038 0 .59-.454 1.038-1.004 1.038s-1.004-.448-1.004-1.038ZM10.345 20.787c0-5.656 4.525-10.266 10.03-10.266 5.504 0 10.029 4.61 10.029 10.266s-4.525 10.266-10.03 10.266c-5.504 0-10.029-4.61-10.029-10.266Zm18.05 0c0-4.534-3.56-8.19-8.02-8.19-4.461 0-8.021 3.656-8.021 8.19 0 4.534 3.56 8.19 8.02 8.19 4.461 0 8.021-3.656 8.021-8.19Z" fill="#070707" stroke="#070707"/></svg><svg fill="none" viewBox="0 0 20 20" id="instagram" xmlns="http://www.w3.org/2000/svg"><path d="M15.34 3.46a1.2 1.2 0 1 0 0 2.4 1.2 1.2 0 0 0 0-2.4Zm4.6 2.42a7.588 7.588 0 0 0-.46-2.43 4.94 4.94 0 0 0-1.16-1.77A4.7 4.7 0 0 0 16.55.53a7.3 7.3 0 0 0-2.43-.47C13.06 0 12.72 0 10 0S6.94 0 5.88.06a7.3 7.3 0 0 0-2.43.47 4.78 4.78 0 0 0-1.77 1.15A4.7 4.7 0 0 0 .53 3.45a7.3 7.3 0 0 0-.47 2.43C0 6.94 0 7.28 0 10s0 3.06.06 4.12a7.3 7.3 0 0 0 .47 2.43 4.7 4.7 0 0 0 1.15 1.77 4.78 4.78 0 0 0 1.77 1.15 7.3 7.3 0 0 0 2.43.47C6.94 20 7.28 20 10 20s3.06 0 4.12-.06a7.3 7.3 0 0 0 2.43-.47 4.7 4.7 0 0 0 1.77-1.15 4.85 4.85 0 0 0 1.16-1.77c.285-.78.44-1.6.46-2.43 0-1.06.06-1.4.06-4.12s0-3.06-.06-4.12ZM18.14 14a5.61 5.61 0 0 1-.34 1.86 3.06 3.06 0 0 1-.75 1.15c-.324.33-.717.586-1.15.75a5.61 5.61 0 0 1-1.86.34c-1 .05-1.37.06-4 .06s-3 0-4-.06a5.73 5.73 0 0 1-1.94-.3 3.27 3.27 0 0 1-1.1-.75 3 3 0 0 1-.74-1.15 5.54 5.54 0 0 1-.4-1.9c0-1-.06-1.37-.06-4s0-3 .06-4a5.54 5.54 0 0 1 .35-1.9A3 3 0 0 1 3 3a3.14 3.14 0 0 1 1.1-.8A5.73 5.73 0 0 1 6 1.86c1 0 1.37-.06 4-.06s3 0 4 .06a5.61 5.61 0 0 1 1.86.34 3.06 3.06 0 0 1 1.19.8c.328.307.584.683.75 1.1.222.609.337 1.252.34 1.9.05 1 .06 1.37.06 4s-.01 3-.06 4ZM10 4.87A5.13 5.13 0 1 0 15.14 10 5.12 5.12 0 0 0 10 4.87Zm0 8.46a3.33 3.33 0 1 1 0-6.66 3.33 3.33 0 0 1 0 6.66Z" fill="#F5EFDB"/></svg><svg fill="none" viewBox="0 0 47 40" id="quote" xmlns="http://www.w3.org/2000/svg"><path d="M12.914 22.857c2.402 0 4.304.802 5.706 2.406 1.501 1.504 2.252 3.509 2.252 6.015 0 2.707-.9 4.862-2.703 6.466C16.468 39.248 14.115 40 11.112 40c-3.504 0-6.257-1.353-8.259-4.06C.951 33.233 0 29.373 0 24.36c0-4.51 1.001-8.67 3.003-12.48C5.005 7.97 8.01 4.06 12.013.15c.1-.1.25-.15.45-.15.3 0 .55.15.751.451.2.3.2.551 0 .752C8.31 6.216 5.856 12.13 5.856 18.947c0 2.807.5 4.863 1.502 6.166.9-1.504 2.753-2.256 5.556-2.256Zm26.128 0c2.402 0 4.304.802 5.706 2.406C46.249 26.767 47 28.772 47 31.278c0 2.707-.901 4.862-2.703 6.466C42.595 39.248 40.243 40 37.24 40c-3.504 0-6.257-1.353-8.26-4.06-1.901-2.707-2.852-6.567-2.852-11.58 0-4.51 1-8.67 3.003-12.48 2.002-3.91 5.005-7.82 9.01-11.73.1-.1.25-.15.45-.15.3 0 .55.15.75.451.201.3.201.551 0 .752-4.904 5.013-7.357 10.927-7.357 17.744 0 2.807.5 4.863 1.502 6.166.9-1.504 2.753-2.256 5.556-2.256Z" fill="#fff"/></svg><svg fill="none" viewBox="0 0 14 9" id="select-arrow" xmlns="http://www.w3.org/2000/svg"><path d="m7.576 8.488 5.433-5.922a1.054 1.054 0 0 0 0-1.455c-.388-.415-.97-.415-1.358 0L6.8 6.202l-4.85-5.09C1.56.695.98.695.59 1.111a.976.976 0 0 0-.291.727c0 .311.097.52.291.727l5.433 5.922c.485.416 1.067.416 1.552 0-.097 0-.097 0 0 0Z" fill="#AAA"/></svg><svg viewBox="0 0 22 20" id="star" xmlns="http://www.w3.org/2000/svg"><path d="M9.793.86c.3-.92 1.602-.92 1.902 0l1.751 5.374a1 1 0 0 0 .95.69h5.662c.969 0 1.371 1.241.586 1.81l-4.575 3.315a1 1 0 0 0-.364 1.12l1.749 5.366c.3.92-.753 1.688-1.538 1.12l-4.585-3.323a1 1 0 0 0-1.174 0l-4.585 3.322c-.784.569-1.838-.198-1.538-1.12l1.749-5.366a1 1 0 0 0-.364-1.12L.844 8.735c-.785-.569-.383-1.81.587-1.81h5.66a1 1 0 0 0 .951-.69L9.793.86Z"/></svg><svg fill="none" viewBox="0 0 23 20" id="twitter" xmlns="http://www.w3.org/2000/svg"><path d="M22.991 1.95a1 1 0 0 0-1.51-.86 7.48 7.48 0 0 1-1.873.794A5.152 5.152 0 0 0 16.233.642a5.233 5.233 0 0 0-5.223 5.063 11.032 11.032 0 0 1-6.814-3.924 1.011 1.011 0 0 0-.857-.365.998.998 0 0 0-.785.5 5.275 5.275 0 0 0-.242 4.769l-.002.002a1.041 1.041 0 0 0-.496.888c-.001.147.007.294.027.44a5.185 5.185 0 0 0 1.568 3.312.999.999 0 0 0-.066.77 5.204 5.204 0 0 0 2.362 2.921 7.465 7.465 0 0 1-3.59.449A1 1 0 0 0 1.45 17.3a12.942 12.942 0 0 0 7.01 2.061 12.788 12.788 0 0 0 12.465-9.363c.353-1.183.533-2.412.535-3.646l-.001-.2a5.77 5.77 0 0 0 1.532-4.202Zm-3.306 3.212a.995.995 0 0 0-.234.702c.01.165.009.331.009.488a10.826 10.826 0 0 1-.454 3.08 10.685 10.685 0 0 1-10.546 7.93c-.86 0-1.715-.101-2.55-.301a9.48 9.48 0 0 0 2.942-1.564 1.001 1.001 0 0 0-.602-1.786 3.208 3.208 0 0 1-2.214-.935c.15-.028.298-.063.445-.105a1 1 0 0 0-.08-1.944 3.197 3.197 0 0 1-2.25-1.725c.181.025.363.04.545.046a1.021 1.021 0 0 0 .984-.696 1 1 0 0 0-.4-1.137A3.196 3.196 0 0 1 3.86 4.344a13.014 13.014 0 0 0 8.21 3.48 1.02 1.02 0 0 0 .817-.36 1 1 0 0 0 .206-.867 3.164 3.164 0 0 1-.087-.729 3.23 3.23 0 0 1 4.506-2.962c.403.176.766.433 1.065.756a.993.993 0 0 0 .921.298 9.27 9.27 0 0 0 1.212-.322 6.679 6.679 0 0 1-1.026 1.524Z" fill="#F5EFDB"/></svg></svg>